<svg xmlns="http://www.w3.org/2000/svg" viewBox="0 0 100 100" width="100" height="100">
  <rect width="100" height="100" rx="20" fill="white"/>
  <!-- Heart shape -->
  <path d="M50 75 C50 75 20 55 20 35 C20 25 28 18 36 18 C42 18 47 22 50 27 C53 22 58 18 64 18 C72 18 80 25 80 35 C80 55 50 75 50 75Z" fill="#c8dff5" opacity="0.7"/>
  <!-- ECG line -->
  <polyline points="22,40 30,40 34,28 38,52 42,38 46,38 50,40 78,40" fill="none" stroke="#1e5fa8" stroke-width="3" stroke-linecap="round" stroke-linejoin="round"/>
  <!-- Book -->
  <rect x="43" y="42" width="22" height="18" rx="2" fill="#4caf7d" opacity="0.9"/>
  <line x1="54" y1="42" x2="54" y2="60" stroke="white" stroke-width="1.5"/>
  <!-- Light bulb -->
  <circle cx="54" cy="34" r="7" fill="#ffd54f"/>
  <rect x="51" y="40" width="6" height="3" rx="1" fill="#ffa000"/>
  <line x1="54" y1="26" x2="54" y2="23" stroke="#ffd54f" stroke-width="1.5"/>
  <line x1="48" y1="28" x2="46" y2="26" stroke="#ffd54f" stroke-width="1.5"/>
  <line x1="60" y1="28" x2="62" y2="26" stroke="#ffd54f" stroke-width="1.5"/>
</svg>
